<svg width="10" height="12" viewBox="0 0 10 12" fill="none" xmlns="http://www.w3.org/2000/svg">
<path fill-rule="evenodd" clip-rule="evenodd" d="M2.27265 0.666626L6.22328 0.666626C6.51575 0.666626 6.79261 0.798637 6.97673 1.02589L8.84428 3.33098C8.98418 3.50367 9.06053 3.71917 9.06053 3.94142L9.06053 9.3939C9.06053 10.465 8.19223 11.3333 7.12113 11.3333L2.27265 11.3333C1.20155 11.3333 0.333252 10.465 0.333252 9.3939L0.333252 2.60602C0.333252 1.53492 1.20155 0.666626 2.27265 0.666626ZM6.44992 1.92183L6.44992 3.28497L7.55431 3.28497L6.44992 1.92183ZM2.27517 1.63633C1.73962 1.63633 1.30548 2.07048 1.30548 2.60603L1.30548 9.39391C1.30548 9.92945 1.73962 10.3636 2.27517 10.3636L7.12366 10.3636C7.65921 10.3636 8.09335 9.92945 8.09335 9.39391L8.09335 4.25451L6.45699 4.25451C5.92144 4.25451 5.48729 3.82036 5.48729 3.28481L5.48729 1.63633L2.27517 1.63633Z" fill="#7ED5CF"/>
</svg>
