<svg width="21" height="20" viewBox="0 0 21 20" fill="none" xmlns="http://www.w3.org/2000/svg">
<path d="M0 2.32226C0 1.64884 0.236493 1.09329 0.709459 0.655589C1.18243 0.217872 1.7973 -0.000976562 2.55405 -0.000976562C3.2973 -0.000976562 3.89864 0.214498 4.35811 0.645488C4.83107 1.08993 5.06757 1.66904 5.06757 2.38286C5.06757 3.02933 4.83784 3.56803 4.37838 3.99902C3.90541 4.44347 3.28378 4.66569 2.51351 4.66569H2.49324C1.74999 4.66569 1.14866 4.44347 0.689189 3.99902C0.229723 3.55458 0 2.99565 0 2.32226ZM0.263514 19.999V6.50407H4.76351V19.999H0.263514ZM7.25676 19.999H11.7568V12.4637C11.7568 11.9923 11.8108 11.6286 11.9189 11.3728C12.1081 10.9148 12.3953 10.5276 12.7804 10.2111C13.1655 9.89464 13.6486 9.7364 14.2297 9.7364C15.7432 9.7364 16.5 10.7532 16.5 12.7869V19.999H21V12.2617C21 10.2684 20.527 8.7566 19.5811 7.7263C18.6351 6.69599 17.3851 6.18084 15.8311 6.18084C14.0878 6.18084 12.7297 6.92832 11.7568 8.42327V8.46367H11.7365L11.7568 8.42327V6.50407H7.25676C7.28378 6.93504 7.2973 8.2751 7.2973 10.5243C7.2973 12.7734 7.28378 15.9317 7.25676 19.999Z" fill="white"/>
</svg>
