<svg width="26" height="20" viewBox="0 0 26 20" fill="none" xmlns="http://www.w3.org/2000/svg">
<path d="M26 2.36672C25.0331 2.76825 24.0029 3.03441 22.9287 3.16364C24.0337 2.53902 24.8771 1.55748 25.2736 0.374408C24.2434 0.955946 23.1059 1.36672 21.8936 1.59595C20.9154 0.609793 19.5211 -0.000976562 18.0001 -0.000976562C15.0491 -0.000976562 12.6734 2.26672 12.6734 5.04672C12.6734 5.44672 12.7091 5.83133 12.7969 6.19748C8.3655 5.99287 4.44438 3.9821 1.81025 0.919024C1.35037 1.67441 1.08063 2.53902 1.08063 3.46979C1.08063 5.21749 2.03125 6.76672 3.44825 7.66364C2.59187 7.64825 1.75175 7.41287 1.04 7.0421C1.04 7.05749 1.04 7.07749 1.04 7.09749C1.04 9.54979 2.88762 11.5867 5.3105 12.0559C4.87663 12.1683 4.40375 12.2221 3.913 12.2221C3.57175 12.2221 3.22725 12.2036 2.90387 12.1359C3.5945 14.1344 5.55425 15.6036 7.8845 15.6513C6.071 16.9944 3.76838 17.8036 1.27562 17.8036C0.8385 17.8036 0.41925 17.7852 0 17.7344C2.36112 19.1759 5.15938 19.999 8.177 19.999C17.9855 19.999 23.348 12.3067 23.348 5.63902C23.348 5.41595 23.3399 5.20056 23.3285 4.98672C24.3864 4.27595 25.2752 3.38825 26 2.36672Z" fill="white"/>
</svg>
