<svg width="71" height="71" viewBox="0 0 71 71" fill="none" xmlns="http://www.w3.org/2000/svg">
<path d="M50.7582 38.022L49.3834 36.747L50.7582 38.022ZM33.0805 20.3443L34.3555 21.7191L33.0805 20.3443ZM59.1516 16.6806L61.0108 16.9237L59.1516 16.6806ZM54.422 11.9509L54.6651 13.8101L54.422 11.9509ZM21.2352 37.6263L22.9188 38.4516L21.2352 37.6263ZM33.4762 49.8673L32.6509 48.1837L33.4762 49.8673ZM25.5676 31.3928C24.8353 30.6605 23.6482 30.6605 22.9159 31.3928C22.1837 32.125 22.1837 33.3122 22.9159 34.0444L25.5676 31.3928ZM37.0581 48.1866C37.7903 48.9188 38.9775 48.9188 39.7097 48.1866C40.442 47.4543 40.4419 46.2671 39.7097 45.5349L37.0581 48.1866ZM21.1482 52.606C21.8804 51.8737 21.8804 50.6866 21.1482 49.9543C20.4159 49.2221 19.2287 49.2221 18.4965 49.9543L21.1482 52.606ZM11.4254 57.0254C10.6932 57.7576 10.6932 58.9448 11.4254 59.6771C12.1577 60.4093 13.3449 60.4093 14.0771 59.6771L11.4254 57.0254ZM15.8449 47.3027C16.5771 46.5704 16.5771 45.3833 15.8449 44.651C15.1126 43.9188 13.9254 43.9188 13.1932 44.651L15.8449 47.3027ZM9.65768 48.1866C8.92545 48.9188 8.92545 50.106 9.65768 50.8382C10.3899 51.5704 11.5771 51.5704 12.3093 50.8382L9.65768 48.1866ZM26.4515 57.9093C27.1837 57.1771 27.1837 55.9899 26.4515 55.2576C25.7192 54.5254 24.532 54.5254 23.7998 55.2576L26.4515 57.9093ZM20.2643 58.7932C19.532 59.5254 19.532 60.7126 20.2643 61.4448C20.9965 62.1771 22.1837 62.1771 22.9159 61.4448L20.2643 58.7932ZM31.4896 58.7048L33.3458 58.4396L31.4896 58.7048ZM44.3943 50.0427L46.2505 49.7776L44.3943 50.0427ZM12.3977 39.6129L12.6628 37.7568L12.6628 37.7568L12.3977 39.6129ZM21.0597 26.7082L20.7946 28.5644L20.7946 28.5644L21.0597 26.7082ZM29.3749 47.5747L23.5278 41.7276L20.8762 44.3792L26.7233 50.2264L29.3749 47.5747ZM49.3834 36.747C44.6493 41.8513 36.9626 46.0699 32.6509 48.1837L34.3016 51.5508C38.6522 49.418 46.8913 44.9486 52.1329 39.297L49.3834 36.747ZM22.9188 38.4516C25.0327 34.1399 29.2512 26.4532 34.3555 21.7191L31.8055 18.9696C26.1539 24.2112 21.6845 32.4504 19.5517 36.8009L22.9188 38.4516ZM57.2924 16.4374C56.5328 22.2458 54.5145 31.2147 49.3834 36.747L52.1329 39.297C58.1217 32.8399 60.2394 22.8212 61.0108 16.9237L57.2924 16.4374ZM34.3555 21.7191C39.8878 16.588 48.8567 14.5697 54.6651 13.8101L54.1788 10.0917C48.2813 10.8631 38.2626 12.9808 31.8055 18.9696L34.3555 21.7191ZM61.0108 16.9237C61.5384 12.889 58.2135 9.56406 54.1788 10.0917L54.6651 13.8101C56.2575 13.6018 57.5007 14.845 57.2924 16.4374L61.0108 16.9237ZM23.5278 41.7276C22.6199 40.8196 22.398 39.514 22.9188 38.4516L19.5517 36.8009C18.2812 39.3924 18.9067 42.4097 20.8762 44.3792L23.5278 41.7276ZM26.7233 50.2264C28.6928 52.1958 31.7101 52.8213 34.3016 51.5508L32.6509 48.1837C31.5886 48.7045 30.2829 48.4826 29.3749 47.5747L26.7233 50.2264ZM22.9159 34.0444L37.0581 48.1866L39.7097 45.5349L25.5676 31.3928L22.9159 34.0444ZM18.4965 49.9543L11.4254 57.0254L14.0771 59.6771L21.1482 52.606L18.4965 49.9543ZM13.1932 44.651L9.65768 48.1866L12.3093 50.8382L15.8449 47.3027L13.1932 44.651ZM23.7998 55.2576L20.2643 58.7932L22.9159 61.4448L26.4515 57.9093L23.7998 55.2576ZM37.9419 23.4378C35.2571 26.1227 35.2571 30.4757 37.942 33.1605L40.5936 30.5089C39.3732 29.2885 39.3732 27.3099 40.5936 26.0895L37.9419 23.4378ZM37.942 33.1605C40.6268 35.8454 44.9798 35.8454 47.6647 33.1605L45.013 30.5089C43.7926 31.7293 41.814 31.7293 40.5936 30.5089L37.942 33.1605ZM47.6647 33.1605C50.3495 30.4757 50.3495 26.1227 47.6647 23.4378L45.013 26.0895C46.2334 27.3099 46.2334 29.2885 45.013 30.5089L47.6647 33.1605ZM47.6647 23.4378C44.9798 20.753 40.6268 20.753 37.9419 23.4378L40.5936 26.0895C41.814 24.8691 43.7926 24.8691 45.013 26.0895L47.6647 23.4378ZM42.3614 50.8382L34.4064 58.7932L37.0581 61.4448L45.013 53.4899L42.3614 50.8382ZM33.3458 58.4396L32.2851 51.015L28.5728 51.5453L29.6334 58.9699L33.3458 58.4396ZM41.831 45.3581L42.5381 50.3079L46.2505 49.7776L45.5433 44.8278L41.831 45.3581ZM34.4064 58.7932C34.0422 59.1573 33.4186 58.9495 33.3458 58.4396L29.6334 58.9699C30.1433 62.5389 34.5088 63.9941 37.0581 61.4448L34.4064 58.7932ZM45.013 53.4899C45.9867 52.5161 46.4452 51.1408 46.2505 49.7776L42.5381 50.3079C42.566 50.5026 42.5005 50.6991 42.3614 50.8382L45.013 53.4899ZM17.6126 26.0895L9.65763 34.0445L12.3093 36.6961L20.2642 28.7412L17.6126 26.0895ZM12.1325 41.4691L19.5571 42.5298L20.0875 38.8175L12.6628 37.7568L12.1325 41.4691ZM26.2746 25.5592L21.3249 24.8521L20.7946 28.5644L25.7443 29.2715L26.2746 25.5592ZM9.65763 34.0445C7.10837 36.5937 8.56354 40.9593 12.1325 41.4691L12.6628 37.7568C12.153 37.684 11.9451 37.0603 12.3093 36.6961L9.65763 34.0445ZM20.2642 28.7412C20.4033 28.6021 20.5998 28.5366 20.7946 28.5644L21.3249 24.8521C19.9617 24.6573 18.5863 25.1158 17.6126 26.0895L20.2642 28.7412Z" fill="#886CFF"/>
</svg>
